<?xml version="1.0" standalone="no"?><!DOCTYPE svg PUBLIC "-//W3C//DTD SVG 1.1//EN" "http://www.w3.org/Graphics/SVG/1.1/DTD/svg11.dtd"><svg xmlns="http://www.w3.org/2000/svg" viewBox="0 0 650 400" version="1.1"><clipPath id="box"><rect x="0" y="0" width="650" height="400" style="fill:none;stroke:none;" /></clipPath><g clip-path="url(#box)"><rect x="0.00" y="0.00" width="650.00" height="400.00" style="fill:#FFFFFF;stroke:none;" /><path d="M0.00 369.00 L650.00 369.00 M0.00 307.00 L650.00 307.00 M0.00 246.00 L650.00 246.00 M0.00 184.00 L650.00 184.00 M0.00 123.00 L650.00 123.00 M0.00 61.00 L650.00 61.00 M0.00 0.00 L650.00 0.00 M0.00 0.00 L0.00 400.00 M43.00 0.00 L43.00 400.00 M86.00 0.00 L86.00 400.00 M130.00 0.00 L130.00 400.00 M173.00 0.00 L173.00 400.00 M216.00 0.00 L216.00 400.00 M260.00 0.00 L260.00 400.00 M303.00 0.00 L303.00 400.00 M346.00 0.00 L346.00 400.00 M390.00 0.00 L390.00 400.00 M433.00 0.00 L433.00 400.00 M476.00 0.00 L476.00 400.00 M520.00 0.00 L520.00 400.00 M563.00 0.00 L563.00 400.00 M606.00 0.00 L606.00 400.00 M650.00 0.00 L650.00 400.00 " style="fill:none;stroke:#D0D0D0;stroke-width:1;" /><path d="M0.00 0.00 L0.00 400.00 " style="fill:none;stroke:#000000;stroke-width:1;" /><path d="M-6.50 430.77 L6.50 430.77 M-6.50 369.23 L6.50 369.23 M-6.50 307.69 L6.50 307.69 M-6.50 246.15 L6.50 246.15 M-6.50 184.62 L6.50 184.62 M-6.50 123.08 L6.50 123.08 M-6.50 61.54 L6.50 61.54 M-6.50 0.00 L6.50 0.00 " style="fill:none;stroke:#000000;stroke-width:1;" /><path d="M0.00 369.23 L650.00 369.23 " style="fill:none;stroke:#000000;stroke-width:1;" /><path d="M0.00 362.73 L0.00 375.73 M43.33 362.73 L43.33 375.73 M86.67 362.73 L86.67 375.73 M130.00 362.73 L130.00 375.73 M173.33 362.73 L173.33 375.73 M216.67 362.73 L216.67 375.73 M260.00 362.73 L260.00 375.73 M303.33 362.73 L303.33 375.73 M346.67 362.73 L346.67 375.73 M390.00 362.73 L390.00 375.73 M433.33 362.73 L433.33 375.73 M476.67 362.73 L476.67 375.73 M520.00 362.73 L520.00 375.73 M563.33 362.73 L563.33 375.73 M606.67 362.73 L606.67 375.73 M650.00 362.73 L650.00 375.73 " style="fill:none;stroke:#000000;stroke-width:1;" /><text x="8.125" y="371.7307692307692" text-anchor="start" style="font:10px Droid Sans,Trebuchet MS,Arial,Helvetica,sans-serif;stroke:none;fill:#000000">0</text><text x="8.125" y="310.19230769230774" text-anchor="start" style="font:10px Droid Sans,Trebuchet MS,Arial,Helvetica,sans-serif;stroke:none;fill:#000000">20</text><text x="8.125" y="248.65384615384616" text-anchor="start" style="font:10px Droid Sans,Trebuchet MS,Arial,Helvetica,sans-serif;stroke:none;fill:#000000">40</text><text x="8.125" y="187.1153846153846" text-anchor="start" style="font:10px Droid Sans,Trebuchet MS,Arial,Helvetica,sans-serif;stroke:none;fill:#000000">60</text><text x="8.125" y="125.57692307692308" text-anchor="start" style="font:10px Droid Sans,Trebuchet MS,Arial,Helvetica,sans-serif;stroke:none;fill:#000000">80</text><text x="8.125" y="64.03846153846155" text-anchor="start" style="font:10px Droid Sans,Trebuchet MS,Arial,Helvetica,sans-serif;stroke:none;fill:#000000">100</text><text x="43.333333333333336" y="385.3557692307692" text-anchor="middle" style="font:10px Droid Sans,Trebuchet MS,Arial,Helvetica,sans-serif;stroke:none;fill:#000000">200</text><text x="86.66666666666667" y="385.3557692307692" text-anchor="middle" style="font:10px Droid Sans,Trebuchet MS,Arial,Helvetica,sans-serif;stroke:none;fill:#000000">400</text><text x="130" y="385.3557692307692" text-anchor="middle" style="font:10px Droid Sans,Trebuchet MS,Arial,Helvetica,sans-serif;stroke:none;fill:#000000">600</text><text x="173.33333333333334" y="385.3557692307692" text-anchor="middle" style="font:10px Droid Sans,Trebuchet MS,Arial,Helvetica,sans-serif;stroke:none;fill:#000000">800</text><text x="216.66666666666666" y="385.3557692307692" text-anchor="middle" style="font:10px Droid Sans,Trebuchet MS,Arial,Helvetica,sans-serif;stroke:none;fill:#000000">1000</text><text x="260" y="385.3557692307692" text-anchor="middle" style="font:10px Droid Sans,Trebuchet MS,Arial,Helvetica,sans-serif;stroke:none;fill:#000000">1200</text><text x="303.3333333333333" y="385.3557692307692" text-anchor="middle" style="font:10px Droid Sans,Trebuchet MS,Arial,Helvetica,sans-serif;stroke:none;fill:#000000">1400</text><text x="346.6666666666667" y="385.3557692307692" text-anchor="middle" style="font:10px Droid Sans,Trebuchet MS,Arial,Helvetica,sans-serif;stroke:none;fill:#000000">1600</text><text x="390" y="385.3557692307692" text-anchor="middle" style="font:10px Droid Sans,Trebuchet MS,Arial,Helvetica,sans-serif;stroke:none;fill:#000000">1800</text><text x="433.3333333333333" y="385.3557692307692" text-anchor="middle" style="font:10px Droid Sans,Trebuchet MS,Arial,Helvetica,sans-serif;stroke:none;fill:#000000">2000</text><text x="476.66666666666663" y="385.3557692307692" text-anchor="middle" style="font:10px Droid Sans,Trebuchet MS,Arial,Helvetica,sans-serif;stroke:none;fill:#000000">2200</text><text x="520" y="385.3557692307692" text-anchor="middle" style="font:10px Droid Sans,Trebuchet MS,Arial,Helvetica,sans-serif;stroke:none;fill:#000000">2400</text><text x="563.3333333333334" y="385.3557692307692" text-anchor="middle" style="font:10px Droid Sans,Trebuchet MS,Arial,Helvetica,sans-serif;stroke:none;fill:#000000">2600</text><text x="606.6666666666666" y="385.3557692307692" text-anchor="middle" style="font:10px Droid Sans,Trebuchet MS,Arial,Helvetica,sans-serif;stroke:none;fill:#000000">2800</text><path d="M-0.00 500.00 L0.00 61.54 L0.00 61.54 L2.00 61.54 L4.00 62.91 L5.47 67.39 L5.80 68.86 L6.02 69.94 L6.22 71.00 L6.42 72.05 L6.60 73.09 L6.78 74.13 L6.95 75.16 L7.12 76.19 L7.28 77.21 L7.44 78.23 L7.59 79.25 L7.74 80.27 L7.89 81.29 L8.04 82.30 L8.18 83.31 L8.32 84.32 L8.46 85.33 L8.60 86.34 L8.74 87.35 L8.88 88.36 L9.02 89.37 L9.15 90.37 L9.29 91.38 L9.42 92.38 L9.55 93.39 L9.69 94.39 L9.82 95.39 L9.95 96.40 L10.08 97.40 L10.21 98.40 L10.34 99.40 L10.47 100.40 L10.60 101.41 L10.73 102.41 L10.86 103.41 L10.99 104.41 L11.12 105.41 L11.25 106.40 L11.38 107.40 L11.51 108.40 L11.64 109.40 L11.77 110.40 L11.91 111.40 L12.04 112.40 L12.17 113.39 L12.30 114.39 L12.43 115.39 L12.56 116.39 L12.70 117.38 L12.83 118.38 L12.96 119.38 L13.10 120.37 L13.23 121.37 L13.37 122.37 L13.50 123.36 L13.64 124.36 L13.77 125.35 L13.91 126.35 L14.05 127.35 L14.19 128.34 L14.32 129.34 L14.46 130.33 L14.60 131.33 L14.74 132.32 L14.89 133.32 L15.03 134.31 L15.17 135.31 L15.31 136.30 L15.46 137.30 L15.60 138.29 L15.75 139.28 L15.90 140.28 L16.04 141.27 L16.19 142.27 L16.34 143.26 L16.49 144.25 L16.64 145.25 L16.80 146.24 L16.95 147.24 L17.10 148.23 L17.26 149.22 L17.42 150.22 L17.57 151.21 L17.73 152.20 L17.89 153.20 L18.05 154.19 L18.21 155.18 L18.38 156.17 L18.54 157.17 L18.71 158.16 L18.87 159.15 L19.04 160.14 L19.21 161.14 L19.38 162.13 L19.55 163.12 L19.72 164.11 L19.90 165.11 L20.07 166.10 L20.25 167.09 L20.43 168.08 L20.61 169.07 L20.79 170.07 L20.97 171.06 L21.16 172.05 L21.35 173.04 L21.53 174.03 L21.72 175.02 L21.91 176.01 L22.11 177.00 L22.30 178.00 L22.50 178.99 L22.69 179.98 L22.89 180.97 L23.10 181.96 L23.30 182.95 L23.51 183.94 L23.71 184.93 L23.92 185.92 L24.13 186.91 L24.35 187.90 L24.56 188.89 L24.78 189.88 L25.00 190.87 L25.22 191.86 L25.45 192.85 L25.67 193.84 L25.90 194.83 L26.13 195.82 L26.36 196.81 L26.60 197.80 L26.84 198.79 L27.08 199.78 L27.32 200.77 L27.57 201.76 L27.82 202.75 L28.07 203.74 L28.32 204.73 L28.58 205.72 L28.84 206.70 L29.10 207.69 L29.37 208.68 L29.64 209.67 L29.91 210.66 L30.19 211.65 L30.47 212.64 L30.75 213.62 L31.03 214.61 L31.32 215.60 L31.61 216.59 L31.91 217.58 L32.21 218.56 L32.51 219.55 L32.82 220.54 L33.13 221.53 L33.44 222.51 L33.76 223.50 L34.09 224.49 L34.41 225.48 L34.74 226.46 L35.08 227.45 L35.42 228.44 L35.76 229.42 L36.11 230.41 L36.47 231.40 L36.83 232.38 L37.19 233.37 L37.56 234.35 L37.93 235.34 L38.31 236.33 L38.70 237.31 L39.09 238.30 L39.48 239.28 L39.89 240.27 L40.29 241.25 L40.71 242.24 L41.13 243.22 L41.55 244.21 L41.99 245.19 L42.43 246.18 L42.87 247.16 L43.33 248.15 L43.79 249.13 L44.25 250.12 L44.73 251.10 L45.21 252.08 L45.70 253.07 L46.20 254.05 L46.71 255.04 L47.23 256.02 L47.75 257.00 L48.29 257.98 L48.83 258.97 L49.38 259.95 L49.94 260.93 L50.52 261.92 L51.10 262.90 L51.69 263.88 L52.30 264.86 L52.91 265.84 L53.54 266.82 L54.18 267.81 L54.83 268.79 L55.49 269.77 L56.17 270.75 L56.86 271.73 L57.56 272.71 L58.27 273.69 L59.01 274.67 L59.75 275.65 L60.51 276.63 L61.29 277.61 L62.09 278.59 L62.90 279.57 L63.73 280.54 L64.57 281.52 L65.44 282.50 L66.32 283.48 L67.23 284.46 L68.15 285.43 L69.10 286.41 L70.07 287.39 L71.06 288.37 L72.07 289.34 L73.11 290.32 L74.18 291.29 L75.27 292.27 L76.39 293.24 L77.54 294.22 L78.72 295.19 L79.92 296.17 L81.16 297.14 L82.44 298.12 L83.74 299.09 L85.09 300.06 L86.47 301.03 L87.89 302.01 L89.35 302.98 L90.86 303.95 L92.41 304.92 L94.00 305.89 L95.65 306.86 L97.34 307.83 L99.09 308.80 L100.89 309.77 L102.75 310.73 L104.68 311.70 L106.67 312.67 L108.67 313.61 L110.67 314.52 L112.67 315.40 L114.67 316.25 L116.67 317.08 L118.67 317.88 L120.67 318.66 L122.67 319.41 L124.67 320.14 L126.67 320.85 L128.67 321.54 L130.67 322.22 L132.67 322.87 L134.67 323.50 L136.67 324.12 L138.67 324.72 L140.67 325.31 L142.67 325.88 L144.67 326.43 L146.67 326.97 L148.67 327.50 L150.67 328.02 L152.67 328.52 L154.67 329.01 L156.67 329.49 L158.67 329.96 L160.67 330.41 L162.67 330.86 L164.67 331.30 L166.67 331.72 L168.67 332.14 L170.67 332.55 L172.67 332.94 L174.67 333.34 L176.67 333.72 L178.67 334.09 L180.67 334.46 L182.67 334.82 L184.67 335.17 L186.67 335.51 L188.67 335.85 L190.67 336.18 L192.67 336.50 L194.67 336.82 L196.67 337.13 L198.67 337.44 L200.67 337.74 L202.67 338.03 L204.67 338.32 L206.67 338.61 L208.67 338.88 L210.67 339.16 L212.67 339.43 L214.67 339.69 L216.67 339.95 L218.67 340.20 L220.67 340.46 L222.67 340.70 L224.67 340.94 L226.67 341.18 L228.67 341.41 L230.67 341.64 L232.67 341.87 L234.67 342.09 L236.67 342.31 L238.67 342.53 L240.67 342.74 L242.67 342.95 L244.67 343.15 L246.67 343.36 L248.67 343.56 L250.67 343.75 L252.67 343.95 L254.67 344.14 L256.67 344.32 L258.67 344.51 L260.67 344.69 L262.67 344.87 L264.67 345.05 L266.67 345.22 L268.67 345.39 L270.67 345.56 L272.67 345.73 L274.67 345.89 L276.67 346.05 L278.67 346.21 L280.67 346.37 L282.67 346.53 L284.67 346.68 L286.67 346.83 L288.67 346.98 L290.67 347.13 L292.67 347.27 L294.67 347.42 L296.67 347.56 L298.67 347.70 L300.67 347.84 L302.67 347.97 L304.67 348.11 L306.67 348.24 L308.67 348.37 L310.67 348.50 L312.67 348.63 L314.67 348.76 L316.67 348.88 L318.67 349.01 L320.67 349.13 L322.67 349.25 L324.67 349.37 L326.67 349.48 L328.67 349.60 L330.67 349.72 L332.67 349.83 L334.67 349.94 L336.67 350.05 L338.67 350.16 L340.67 350.27 L342.67 350.38 L344.67 350.48 L346.67 350.59 L348.67 350.69 L350.67 350.79 L352.67 350.90 L354.67 351.00 L356.67 351.10 L358.67 351.19 L360.67 351.29 L362.67 351.39 L364.67 351.48 L366.67 351.58 L368.67 351.67 L370.67 351.76 L372.67 351.85 L374.67 351.94 L376.67 352.03 L378.67 352.12 L380.67 352.21 L382.67 352.29 L384.67 352.38 L386.67 352.46 L388.67 352.55 L390.67 352.63 L392.67 352.71 L394.67 352.79 L396.67 352.87 L398.67 352.95 L400.67 353.03 L402.67 353.11 L404.67 353.19 L406.67 353.27 L408.67 353.34 L410.67 353.42 L412.67 353.49 L414.67 353.57 L416.67 353.64 L418.67 353.71 L420.67 353.78 L422.67 353.86 L424.67 353.93 L426.67 354.00 L428.67 354.07 L430.67 354.13 L432.67 354.20 L434.67 354.27 L436.67 354.34 L438.67 354.40 L440.67 354.47 L442.67 354.53 L444.67 354.60 L446.67 354.66 L448.67 354.72 L450.67 354.79 L452.67 354.85 L454.67 354.91 L456.67 354.97 L458.67 355.03 L460.67 355.09 L462.67 355.15 L464.67 355.21 L466.67 355.27 L468.67 355.33 L470.67 355.39 L472.67 355.44 L474.67 355.50 L476.67 355.56 L478.67 355.61 L480.67 355.67 L482.67 355.72 L484.67 355.78 L486.67 355.83 L488.67 355.89 L490.67 355.94 L492.67 355.99 L494.67 356.04 L496.67 356.10 L498.67 356.15 L500.67 356.20 L502.67 356.25 L504.67 356.30 L506.67 356.35 L508.67 356.40 L510.67 356.45 L512.67 356.50 L514.67 356.55 L516.67 356.59 L518.67 356.64 L520.67 356.69 L522.67 356.74 L524.67 356.78 L526.67 356.83 L528.67 356.88 L530.67 356.92 L532.67 356.97 L534.67 357.01 L536.67 357.06 L538.67 357.10 L540.67 357.14 L542.67 357.19 L544.67 357.23 L546.67 357.27 L548.67 357.32 L550.67 357.36 L552.67 357.40 L554.67 357.44 L556.67 357.48 L558.67 357.53 L560.67 357.57 L562.67 357.61 L564.67 357.65 L566.67 357.69 L568.67 357.73 L570.67 357.77 L572.67 357.81 L574.67 357.85 L576.67 357.88 L578.67 357.92 L580.67 357.96 L582.67 358.00 L584.67 358.04 L586.67 358.07 L588.67 358.11 L590.67 358.15 L592.67 358.19 L594.67 358.22 L596.67 358.26 L598.67 358.29 L600.67 358.33 L602.67 358.37 L604.67 358.40 L606.67 358.44 L608.67 358.47 L610.67 358.51 L612.67 358.54 L614.67 358.57 L616.67 358.61 L618.67 358.64 L620.67 358.67 L622.67 358.71 L624.67 358.74 L626.67 358.77 L628.67 358.81 L630.67 358.84 L632.67 358.87 L634.67 358.90 L636.67 358.94 L638.67 358.97 L640.67 359.00 L642.67 359.03 L644.67 359.06 L646.67 359.09 L648.67 359.12 " style="fill:none;stroke:#000000;stroke-width:1;" /></g></svg>